<svg width="16" height="14" viewBox="0 0 16 14" fill="none" xmlns="http://www.w3.org/2000/svg">
<path d="M14.9547 1.46562C14.566 1.01777 14.0917 0.656683 13.5615 0.404752C13.0312 0.152821 12.4561 0.0154192 11.872 0.00106934C11.2884 -0.0120636 10.7081 0.0958893 10.1661 0.31846C9.6241 0.54103 9.13142 0.873637 8.71761 1.29635L8.02938 1.99551L7.4917 1.4509C5.82132 -0.271234 3.09708 -0.418425 1.4267 1.13444C0.991985 1.53478 0.641384 2.02194 0.396334 2.56613C0.151283 3.11031 0.0169337 3.7001 0.00149995 4.29941C-0.0139337 4.89872 0.0898728 5.49496 0.306572 6.05168C0.523272 6.6084 0.848309 7.1139 1.26181 7.53726L7.21928 13.653C7.32528 13.763 7.45145 13.8502 7.5905 13.9098C7.72955 13.9693 7.87872 14 8.02938 14C8.18005 14 8.32922 13.9693 8.46827 13.9098C8.60732 13.8502 8.73349 13.763 8.83948 13.653L14.6464 7.69181C16.324 5.97703 16.4602 3.1804 14.9547 1.46562Z" fill="white"/>
</svg>
